<?xml version="1.0" encoding="utf-8"?>
<svg viewBox="0 0 240.548 240.548" xmlns="http://www.w3.org/2000/svg">
  <path d="M 240.548 120.274 C 240.548 186.7 186.7 240.548 120.274 240.548 C 53.849 240.548 0 186.7 0 120.274 C 0 53.849 53.849 0 120.274 0 C 186.7 0 240.548 53.849 240.548 120.274 Z M 175.151 166.904 C 168.732 166.904 162.914 166.035 157.698 164.296 C 152.483 162.557 148.337 159.964 145.261 156.517 C 142.185 153.069 140.647 148.745 140.647 143.544 C 140.647 138.314 142.185 133.982 145.261 130.549 C 148.337 127.117 152.483 124.546 157.698 122.837 C 162.914 121.128 168.732 120.274 175.151 120.274 C 181.541 120.274 187.336 121.136 192.537 122.86 C 196.031 124.018 199.05 125.561 201.592 127.491 C 202.833 128.433 203.96 129.468 204.975 130.594 C 207.041 132.888 208.416 135.578 209.101 138.662 C 210.07 137.082 210.971 135.472 211.802 133.832 C 217.754 122.089 218.816 109.076 214.989 94.793 C 211.161 80.509 203.74 69.791 192.726 62.638 C 189.112 60.291 185.253 58.28 181.15 56.606 C 172.75 53.177 163.325 51.158 152.876 50.549 C 137.323 49.642 120.773 51.54 103.225 56.242 C 85.595 60.966 70.246 67.594 57.179 76.125 C 44.112 84.657 34.618 94.768 28.696 106.458 C 22.775 118.149 21.738 131.177 25.587 145.543 C 29.415 159.826 36.821 170.57 47.806 177.775 C 58.79 184.979 72.085 189.05 87.688 189.986 C 103.292 190.923 119.909 189.029 137.539 184.305 C 153.414 180.052 167.429 174.202 179.584 166.758 C 178.139 166.855 176.662 166.904 175.151 166.904 Z M 123.976 157.498 C 122.757 158.805 120.61 160.195 117.534 161.666 C 114.458 163.137 110.75 164.378 106.412 165.388 C 102.073 166.398 97.407 166.904 92.414 166.904 C 88.045 166.904 83.765 166.48 79.575 165.633 C 75.385 164.786 71.595 163.442 68.207 161.599 C 64.819 159.756 62.122 157.349 60.116 154.377 C 58.11 151.405 57.107 147.794 57.107 143.544 C 57.107 139.235 58.11 135.594 60.116 132.622 C 62.122 129.65 64.819 127.258 68.207 125.445 C 71.595 123.632 75.385 122.317 79.575 121.5 C 83.765 120.682 88.045 120.274 92.414 120.274 C 97.436 120.274 102.073 120.72 106.323 121.611 C 110.572 122.503 114.22 123.67 117.267 125.111 C 120.313 126.552 122.519 128.09 123.887 129.725 L 112.474 137.214 C 110.81 135.401 108.284 133.952 104.896 132.868 C 101.508 131.783 97.392 131.24 92.548 131.24 C 90.17 131.24 87.77 131.426 85.348 131.798 C 82.926 132.169 80.705 132.801 78.684 133.692 C 76.663 134.584 75.035 135.832 73.802 137.437 C 72.569 139.042 71.952 141.077 71.952 143.544 C 71.952 145.981 72.569 147.995 73.802 149.585 C 75.035 151.175 76.663 152.438 78.684 153.374 C 80.705 154.31 82.926 154.971 85.348 155.358 C 87.77 155.744 90.17 155.937 92.548 155.937 C 97.302 155.937 101.426 155.343 104.918 154.154 C 108.41 152.965 110.869 151.598 112.296 150.053 Z M 175.151 155.759 C 181.363 155.759 186.177 154.644 189.595 152.415 C 193.013 150.187 194.722 147.23 194.722 143.544 C 194.722 139.77 193.005 136.806 189.573 134.651 C 186.14 132.496 181.333 131.419 175.151 131.419 C 168.94 131.419 164.103 132.496 160.641 134.651 C 157.178 136.806 155.447 139.77 155.447 143.544 C 155.447 147.289 157.178 150.261 160.641 152.46 C 164.103 154.659 168.94 155.759 175.151 155.759 Z" style="stroke: rgb(0, 0, 0); fill: rgb(0, 0, 0);" transform="matrix(1, 0, 0, 1, -1.4210854715202004e-14, 0)"/>
</svg>